<?xml version="1.0" encoding="UTF-8"?>
<svg width="373px" height="97px" viewBox="0 0 373 97" version="1.1" xmlns="http://www.w3.org/2000/svg" xmlns:xlink="http://www.w3.org/1999/xlink">
    <!-- Generator: Sketch 50.2 (55047) - http://www.bohemiancoding.com/sketch -->
    <title>Group 30</title>
    <desc>Created with Sketch.</desc>
    <defs></defs>
    <g id="Page-1" stroke="none" stroke-width="1" fill="none" fill-rule="evenodd">
        <g id="Rugooo-Rrules-210-x-245-mm-" transform="translate(-121.000000, -59.000000)">
            <g id="Group-30" transform="translate(124.000000, 61.488000)">
                <path d="M86.624,52.568 C80.764,58.52 72.704,63.847 63.496,63.484 C51.682,63.019 40.914,55.678 38.742,44.843 C37.015,36.231 44.416,27.093 53.397,25.129 C71.22,21.23 82.929,35.858 86.821,52.365 L86.624,52.568 Z" id="Fill-7" fill="#FFFFFE"></path>
                <path d="M86.624,52.568 C80.764,58.52 72.704,63.847 63.496,63.484 C51.682,63.019 40.914,55.678 38.742,44.843 C37.015,36.231 44.416,27.093 53.397,25.129 C71.22,21.23 82.929,35.858 86.821,52.365 L86.624,52.568 Z" id="Stroke-9" stroke="#1A1919" stroke-width="5.532" stroke-linecap="round" stroke-linejoin="round"></path>
                <path d="M73.168,44.377 C73.168,51.152 67.675,56.646 60.899,56.646 C54.124,56.646 48.629,51.152 48.629,44.377 C48.629,37.601 54.124,32.107 60.899,32.107 C67.675,32.107 73.168,37.601 73.168,44.377" id="Fill-10" fill="#37AFB3"></path>
                <path d="M60.899,37.366 C57.027,37.366 53.888,40.505 53.888,44.377 C53.888,48.25 57.027,51.388 60.899,51.388 C64.772,51.388 67.911,48.25 67.911,44.377 C67.911,40.505 64.772,37.366 60.899,37.366" id="Fill-11" fill="#1A1919"></path>
                <path d="M41.505,4.104 C41.505,4.104 42.578,32.153 33.802,57.81 L33.122,59.737 C20.673,93.023 0.242,90.953 0.242,90.953" id="Stroke-12" stroke="#1A1919" stroke-width="5.342" stroke-linecap="round"></path>
                <path d="M191.796,59.737 C174.457,93.023 135.657,90.953 135.657,90.953 C103.989,90.953 90.418,60.947 90.418,60.947 C89.156,58.127 86.249,52.537 86.249,52.537 C89.98,48.43 92.294,43.037 92.59,36.812 C94.307,0.607 60.855,0.515 60.855,0.515 C32.491,0.317 25.549,17.572 25.549,17.572" id="Stroke-13" stroke="#1A1919" stroke-width="5.342" stroke-linecap="round"></path>
                <path d="M195.64,47.893 C195.64,58.48 187.056,67.062 176.468,67.062 C165.881,67.062 157.298,58.48 157.298,47.893 C157.298,37.305 165.881,28.722 176.468,28.722 C187.056,28.722 195.64,37.305 195.64,47.893 Z" id="Stroke-14" stroke="#1A1919" stroke-width="5.342" stroke-linecap="round"></path>
                <path d="M189.032,47.893 C189.032,54.831 183.407,60.455 176.468,60.455 C169.53,60.455 163.905,54.831 163.905,47.893 C163.905,40.954 169.53,35.33 176.468,35.33 C183.407,35.33 189.032,40.954 189.032,47.893" id="Fill-15" fill="#37AFB3"></path>
                <path d="M183.448,47.893 C183.448,51.746 180.324,54.871 176.468,54.871 C172.614,54.871 169.489,51.746 169.489,47.893 C169.489,44.038 172.614,40.913 176.468,40.913 C180.324,40.913 183.448,44.038 183.448,47.893" id="Fill-16" fill="#1A1919"></path>
                <path d="M110.24,32.136 C110.24,32.136 103.412,66.87 123.682,68.373 C143.951,69.877 145.658,40.764 143.492,33.146" id="Stroke-17" stroke="#1A1919" stroke-width="5.54" stroke-linecap="round"></path>
                <path d="M248.804,47.503 C248.804,59.555 239.128,69.323 227.192,69.323 C215.259,69.323 205.585,59.555 205.585,47.503 C205.585,35.453 215.259,25.683 227.192,25.683 C239.128,25.683 248.804,35.453 248.804,47.503" id="Fill-18" fill="#0A0B09"></path>
                <path d="M244.097,47.534 C244.097,56.82 236.544,64.351 227.228,64.351 C217.913,64.351 210.358,56.82 210.358,47.534 C210.358,38.245 217.913,30.715 227.228,30.715 C236.544,30.715 244.097,38.245 244.097,47.534" id="Fill-19" fill="#37AFB3"></path>
                <path d="M227.517,35.187 C234.384,35.201 239.938,40.675 239.925,47.41 C239.909,54.146 234.333,59.596 227.466,59.58 C220.601,59.566 215.042,54.093 215.058,47.358 C215.071,40.623 220.651,35.173 227.517,35.187" id="Fill-20" fill="#FFFFFE"></path>
                <path d="M220.646,47.276 C220.638,51.109 223.761,54.225 227.62,54.231 C231.479,54.24 234.614,51.139 234.62,47.305 C234.628,43.471 231.509,40.354 227.649,40.349 C223.79,40.339 220.651,43.442 220.646,47.276" id="Fill-21" fill="#DA2F2D"></path>
                <path d="M299.804,47.003 C299.804,59.055 290.128,68.823 278.192,68.823 C266.259,68.823 256.585,59.055 256.585,47.003 C256.585,34.953 266.259,25.183 278.192,25.183 C290.128,25.183 299.804,34.953 299.804,47.003" id="Fill-22" fill="#0A0B09"></path>
                <path d="M295.097,47.034 C295.097,56.32 287.544,63.851 278.228,63.851 C268.913,63.851 261.358,56.32 261.358,47.034 C261.358,37.745 268.913,30.215 278.228,30.215 C287.544,30.215 295.097,37.745 295.097,47.034" id="Fill-23" fill="#37AFB3"></path>
                <path d="M278.517,34.687 C285.384,34.701 290.938,40.175 290.925,46.91 C290.909,53.646 285.333,59.096 278.466,59.08 C271.601,59.066 266.042,53.593 266.058,46.858 C266.071,40.123 271.651,34.673 278.517,34.687" id="Fill-24" fill="#FFFFFE"></path>
                <path d="M271.646,47.526 C271.638,51.359 274.761,54.475 278.62,54.481 C282.479,54.49 285.614,51.389 285.62,47.555 C285.628,43.721 282.509,40.604 278.649,40.599 C274.79,40.589 271.651,43.692 271.646,47.526" id="Fill-25" fill="#DA2F2D"></path>
                <path d="M350.554,47.253 C350.554,59.305 340.878,69.073 328.942,69.073 C317.009,69.073 307.335,59.305 307.335,47.253 C307.335,35.203 317.009,25.433 328.942,25.433 C340.878,25.433 350.554,35.203 350.554,47.253" id="Fill-26" fill="#0A0B09"></path>
                <path d="M345.847,47.284 C345.847,56.57 338.294,64.101 328.978,64.101 C319.663,64.101 312.108,56.57 312.108,47.284 C312.108,37.995 319.663,30.465 328.978,30.465 C338.294,30.465 345.847,37.995 345.847,47.284" id="Fill-27" fill="#37AFB3"></path>
                <path d="M329.267,34.937 C336.134,34.951 341.688,40.425 341.675,47.16 C341.659,53.896 336.083,59.346 329.216,59.33 C322.351,59.316 316.792,53.843 316.808,47.108 C316.821,40.373 322.401,34.923 329.267,34.937" id="Fill-28" fill="#FFFFFE"></path>
                <path d="M322.396,47.026 C322.388,50.859 325.511,53.975 329.37,53.981 C333.229,53.99 336.364,50.889 336.37,47.055 C336.378,43.221 333.259,40.104 329.399,40.099 C325.54,40.089 322.401,43.192 322.396,47.026" id="Fill-29" fill="#DA2F2D"></path>
                <text id="TM" font-family="ArialMT, Arial" font-size="9" font-weight="normal" fill="#1A1919">
                    <tspan x="357.5" y="29.4570125">TM</tspan>
                </text>
            </g>
        </g>
    </g>
</svg>